<svg width="24" height="24" viewBox="0 0 24 24" fill="none" xmlns="http://www.w3.org/2000/svg">
    <path
        d="M18.9226 22.9995C18.9083 22.9995 18.894 22.9995 18.8797 22.9987C18.5985 22.9866 18.3339 22.8569 18.153 22.6419C16.5902 20.7836 16.2925 18.5985 17.4456 17.4455C18.5984 16.2926 20.7848 16.5902 22.6422 18.1527C22.8569 18.3331 22.987 18.5981 22.9993 18.8795C23.0115 19.1615 22.9041 19.4376 22.7044 19.6373L22.6254 19.7166L22.5189 19.7502C22.2665 19.8303 21.9724 19.8343 21.6913 19.8298C21.4713 19.8329 21.1398 19.829 21.0449 19.8933C20.5424 20.2321 20.1102 20.6838 19.7945 21.1998C19.7828 21.2485 19.8056 21.4764 19.8191 21.6124C19.8462 21.8827 19.874 22.1625 19.79 22.4046L19.7117 22.6293L19.6374 22.7036C19.448 22.8932 19.1895 22.9996 18.9225 22.9996L18.9226 22.9995ZM18.0936 18.0938C17.3114 18.8761 17.6456 20.6145 18.8544 22.0522C18.8748 22.0764 18.9008 22.0822 18.919 22.0832C18.9212 22.0827 18.924 22.0827 18.9279 22.0832C18.937 22.0039 18.9187 21.8187 18.9071 21.7036C18.873 21.3617 18.8377 21.008 19.0126 20.7221C19.3965 20.0946 19.9217 19.5455 20.5322 19.1337C20.86 18.9121 21.3016 18.9099 21.6921 18.9134C21.8248 18.9126 21.9658 18.9139 22.0815 18.9036C22.0782 18.888 22.0703 18.87 22.0524 18.8549C20.615 17.6458 18.8763 17.3123 18.0936 18.0938L18.0936 18.0938Z"
        fill="#1A162E" />
    <path
        d="M4.7198 7.25463C3.67243 7.25463 2.4578 6.77304 1.35804 5.84785C1.1434 5.66747 1.01323 5.40247 1.00093 5.12103C0.988791 4.83908 1.09619 4.56296 1.29586 4.36327L1.37034 4.28846L1.59578 4.21066C1.83751 4.12737 2.11748 4.15464 2.38732 4.18157C2.52314 4.19537 2.75074 4.21698 2.82041 4.19636C3.31615 3.89014 3.76823 3.45789 4.10701 2.95616C4.17085 2.86123 4.17052 2.52959 4.17036 2.31029C4.17019 2.02717 4.17002 1.73489 4.25016 1.48205L4.28391 1.37549L4.36288 1.29669C4.56254 1.09703 4.84002 0.984315 5.12066 1.00177C5.4018 1.0139 5.66646 1.14357 5.84734 1.35853C7.41012 3.21682 7.70787 5.40195 6.55474 6.55495C6.0844 7.02527 5.4417 7.25454 4.71983 7.25454L4.7198 7.25463ZM1.91681 5.07349V5.08147C1.91764 5.09943 1.92379 5.12536 1.9479 5.14598C3.38563 6.35541 5.12448 6.68839 5.9067 5.90688C6.68892 5.12453 6.35473 3.38613 5.14593 1.94841C5.13064 1.93045 5.11252 1.92247 5.09689 1.91932C5.08675 2.03519 5.08708 2.17799 5.08708 2.30916C5.08758 2.69901 5.08791 3.14072 4.8668 3.46838C4.45499 4.0785 3.90553 4.60385 3.2781 4.98785C2.99298 5.16291 2.63872 5.1275 2.29657 5.09342C2.18252 5.08295 2.00031 5.06449 1.91685 5.07347L1.91681 5.07349ZM6.23073 6.23088H6.23522H6.23073Z"
        fill="#1A162E" />
    <path
        d="M15.3319 19.1301C13.2197 19.1301 10.6 17.8961 8.35242 15.6488C6.75543 14.0518 5.60991 12.1846 5.12749 10.3911C4.62077 8.50851 4.8974 6.91685 5.90588 5.90876C6.91405 4.90034 8.50572 4.6237 10.3883 5.13041C12.1821 5.61336 14.0495 6.75879 15.6463 8.35572C17.2433 9.95265 18.3888 11.8199 18.8712 13.6134C19.3779 15.496 19.1013 17.0876 18.0928 18.0957C17.3931 18.7958 16.4306 19.1301 15.3315 19.1301H15.3319ZM8.64779 5.79943C7.77547 5.79943 7.05543 6.05545 6.55386 6.55668C5.78709 7.32342 5.59493 8.60082 6.01253 10.1531C6.4541 11.7939 7.5153 13.5157 9.00057 15.0009C11.9527 17.9531 15.8196 19.0731 17.445 17.4479C18.2118 16.6811 18.4039 15.4037 17.9863 13.8515C17.5447 12.2106 16.4835 10.4889 14.9983 9.00364C13.5131 7.51808 11.7913 6.45692 10.1502 6.01554C9.61306 5.87108 9.10915 5.79943 8.64762 5.79943L8.64779 5.79943Z"
        fill="#1A162E" />
</svg>
    