<svg width="25" height="30" viewBox="0 0 25 30" fill="none" xmlns="http://www.w3.org/2000/svg">
    <path
        d="M2.5 27.9904C4.86806 29.3576 7.5648 30.0515 10.2987 29.997C13.0325 29.9426 15.6995 29.1419 18.0113 27.6815C20.323 26.2211 22.1916 24.1565 23.415 21.7111C24.6384 19.2656 25.17 16.5322 24.9524 13.8065C24.7349 11.0808 23.7764 8.46636 22.1806 6.24592C20.5848 4.02548 18.4123 2.2835 15.8982 1.20829C13.3841 0.133086 10.6238 -0.234428 7.91595 0.145481C5.20807 0.525389 2.65554 1.63827 0.534335 3.3638L10 15L2.5 27.9904Z"
        fill="#FFB700" />
    <path
        d="M2.5 27.9904C4.86806 29.3576 7.5648 30.0515 10.2987 29.997C13.0325 29.9426 15.6995 29.1419 18.0113 27.6815C20.323 26.2211 22.1916 24.1565 23.415 21.7111C24.6384 19.2656 25.17 16.5322 24.9524 13.8065C24.7349 11.0808 23.7764 8.46636 22.1806 6.24592C20.5848 4.02548 18.4123 2.2835 15.8982 1.20829C13.3841 0.133086 10.6238 -0.234428 7.91595 0.145481C5.20807 0.525389 2.65554 1.63827 0.534335 3.3638L10 15L2.5 27.9904Z"
        fill="white" fill-opacity="0.4" />
</svg>
    