<svg width="24" height="24" viewBox="0 0 24 24" fill="none" xmlns="http://www.w3.org/2000/svg">
    <path
        d="M4.02983 5C2.36256 5 1 6.43233 1 8.1854C1 9.19008 1.44792 10.0863 2.14029 10.6677V19.3199V19.3197C2.14029 19.6954 2.43006 20 2.78735 20H21.2127C21.5699 20 21.8597 19.6954 21.8597 19.3197V10.668C22.5521 10.0866 23 9.19037 23 8.1857C23 6.43282 21.6376 5.0003 19.9702 5.0003L4.02983 5ZM4.02983 6.36056H12.2659C13.2388 6.36056 14.0016 7.16251 14.0016 8.1854C14.0016 8.85183 13.6709 9.41345 13.1704 9.73556C12.9783 9.85913 12.8613 10.0789 12.8613 10.3156V18.6393H3.43424V10.3156C3.43424 10.079 3.31707 9.85916 3.12515 9.73556C2.6247 9.41346 2.29397 8.85179 2.29397 8.1854C2.29397 7.16251 3.05675 6.36056 4.02969 6.36056H4.02983ZM14.7464 6.36056H19.9704C20.9434 6.36056 21.7062 7.16251 21.7062 8.1854C21.7062 8.85183 21.3754 9.41345 20.875 9.73556H20.8748C20.6829 9.85913 20.5657 10.0789 20.5657 10.3156V18.6393H14.1557V10.6679C14.8481 10.0865 15.296 9.19027 15.296 8.1856C15.296 7.50799 15.0924 6.87839 14.7464 6.36075L14.7464 6.36056ZM7.22257 9.7773H7.22239C7.05431 9.78243 6.8949 9.85626 6.77754 9.98306L5.0366 11.8134C4.91239 11.9404 4.8418 12.1142 4.84053 12.2965C4.83927 12.4787 4.90751 12.6537 5.02992 12.7824C5.15251 12.9113 5.31897 12.983 5.49229 12.9817C5.66561 12.9804 5.83098 12.9061 5.95176 12.7754L7.6927 10.945V10.9452C7.88408 10.7495 7.94149 10.4505 7.8375 10.192C7.7335 9.93371 7.48923 9.76896 7.22238 9.7773H7.22257ZM9.40763 11.2294H9.40745C9.23937 11.2347 9.07995 11.3083 8.96278 11.4351L6.41792 14.1106C6.29353 14.2376 6.22293 14.4117 6.22167 14.5937C6.22041 14.7759 6.28865 14.9509 6.41124 15.0798C6.53364 15.2085 6.70028 15.2803 6.87342 15.2789C7.04674 15.2776 7.21229 15.2034 7.33289 15.0728L9.87775 12.3973C10.0691 12.2016 10.1267 11.9026 10.0227 11.6441C9.91855 11.3858 9.67428 11.221 9.40747 11.2294L9.40763 11.2294ZM10.7888 13.5266C10.6207 13.5319 10.4611 13.6058 10.3439 13.7326L8.60297 15.5629V15.5627C8.47894 15.6897 8.40853 15.8637 8.40726 16.0456C8.40618 16.2276 8.47442 16.4026 8.59683 16.5313C8.71924 16.66 8.88552 16.7317 9.05865 16.7306C9.23179 16.7293 9.39716 16.6552 9.51795 16.5248L11.2589 14.6945C11.4503 14.499 11.5079 14.1999 11.4039 13.9415C11.2997 13.683 11.0554 13.5185 10.7887 13.5266L10.7888 13.5266Z"
        fill="#1A162E" />
</svg>
    