<svg width="32" height="32" viewBox="0 0 32 32" fill="none" xmlns="http://www.w3.org/2000/svg">
    <path
        d="M13.8787 1.12132C15.0503 -0.0502521 16.9497 -0.0502526 18.1213 1.12132L30.8787 13.8787C32.0503 15.0503 32.0503 16.9497 30.8787 18.1213L18.1213 30.8787C16.9497 32.0503 15.0503 32.0503 13.8787 30.8787L1.12132 18.1213C-0.0502521 16.9497 -0.0502526 15.0503 1.12132 13.8787L13.8787 1.12132Z"
        fill="#FFB700" />
    <path
        d="M13.8787 1.12132C15.0503 -0.0502521 16.9497 -0.0502526 18.1213 1.12132L30.8787 13.8787C32.0503 15.0503 32.0503 16.9497 30.8787 18.1213L18.1213 30.8787C16.9497 32.0503 15.0503 32.0503 13.8787 30.8787L1.12132 18.1213C-0.0502521 16.9497 -0.0502526 15.0503 1.12132 13.8787L13.8787 1.12132Z"
        fill="white" fill-opacity="0.5" />
</svg>
    