<svg width="24" height="24" viewBox="0 0 24 24" fill="none" xmlns="http://www.w3.org/2000/svg">
    <path
        d="M11.4857 21.9989C6.95109 21.9989 3.71561 20.7927 2.12238 18.5248C0.749797 16.5464 0.627197 13.9168 1.80385 10.9011C2.5883 8.85029 4.81869 7.45117 7.34339 7.45117C9.23079 7.45117 11.118 8.22328 12.7113 9.64666C13.5202 9.01943 15.4321 7.74081 17.5155 7.74081C19.4274 7.74081 20.947 8.77813 22.0501 10.8048C23.3001 13.145 23.3247 15.5335 22.0746 17.5841C20.3586 20.3826 16.5105 21.9992 11.4857 21.9992L11.4857 21.9989ZM7.34322 8.56091C5.28433 8.56091 3.47045 9.67078 2.83316 11.2872C2.12242 13.1449 1.58313 15.7987 3.02927 17.8976C4.40186 19.8518 7.31874 20.8892 11.4856 20.8892C16.0937 20.8892 19.6234 19.4659 21.1185 17.005C22.148 15.3162 22.1235 13.2897 21.0695 11.3113C20.1871 9.64661 18.9859 8.82638 17.5398 8.82638C15.2848 8.82638 13.1033 10.7565 13.0788 10.7805C12.8582 10.9735 12.5151 10.9735 12.319 10.7565C10.4317 8.94685 8.56893 8.5608 7.3432 8.5608L7.34322 8.56091Z"
        fill="#1A162E" />
    <path
        d="M12.7845 8.68414C12.711 8.68414 12.6619 8.68414 12.5884 8.66007C12.3923 8.58771 12.2453 8.41875 12.2208 8.20164C12.1964 7.98455 11.9756 6.00616 12.9806 4.87225C13.3973 4.38978 13.9856 4.14844 14.6964 4.14844H14.7208C17.2699 4.1725 18.9367 5.74078 19.0103 5.81315C19.1819 5.98212 19.2308 6.24733 19.1083 6.46459C18.9857 6.68168 18.7407 6.80234 18.4955 6.72998C18.2258 6.68168 17.9318 6.63355 17.6621 6.63355C15.3336 6.63355 13.1766 8.51536 13.1521 8.51536C13.0541 8.63585 12.9071 8.68415 12.7845 8.68415L12.7845 8.68414ZM14.7208 5.25829C14.3286 5.25829 14.059 5.37895 13.8384 5.59604C13.5197 5.93379 13.3973 6.51286 13.3482 7.01941C14.1327 6.51269 15.3092 5.86142 16.6574 5.62012C16.1181 5.42709 15.4563 5.25831 14.7209 5.25831L14.7208 5.25829Z"
        fill="#1A162E" />
    <path
        d="M10.8974 7.45237H10.8239C7.17165 7.04225 5.33336 3.92993 4.9902 3.27866C4.59798 2.94091 4.59798 2.62723 4.6715 2.43418C4.72057 2.31351 4.86762 2 5.38224 2C5.62742 2 6.11762 2.0483 7.56374 2.55485C11.0691 3.76113 11.4367 6.72855 11.4611 6.84923C11.4856 7.01819 11.4121 7.18698 11.2895 7.30766C11.1915 7.40409 11.0445 7.45239 10.8974 7.45239L10.8974 7.45237ZM6.33831 3.32679C6.90202 4.17127 8.17665 5.66698 10.1376 6.22183C9.81889 5.42568 9.03462 4.24343 7.22071 3.61625C6.85311 3.47152 6.55886 3.37509 6.33831 3.32679V3.32679Z"
        fill="#1A162E" />
</svg>
    