<svg width="24" height="24" viewBox="0 0 24 24" fill="none" xmlns="http://www.w3.org/2000/svg">
    <path
        d="M21.9076 22.4612C21.9917 18.0729 19.2217 14.0365 15.3813 12.5387C11.5059 11.0304 6.97674 12.339 4.3649 15.7235C2.91792 17.5999 2.05079 20.0225 2.09539 22.4612C2.11026 23.1392 3.10128 23.1392 3.08641 22.4612C3.01209 18.5669 5.45512 14.8934 8.88441 13.5533C10.6586 12.8595 12.6061 12.7702 14.4244 13.3168C16.1737 13.8372 17.7348 14.9355 18.8942 16.4174C20.1975 18.0834 20.9558 20.2906 20.916 22.4612C20.9013 23.1339 21.8923 23.1339 21.9072 22.4612L21.9076 22.4612Z"
        fill="#1A162E" />
    <path
        d="M1.47935 22.9869H3.5755H8.61025H14.6759H19.9191C20.7715 22.9869 21.6338 23.0184 22.486 22.9869H22.5208C23.1601 22.9869 23.1601 21.9359 22.5208 21.9359H20.4246H15.3899H9.32421H4.08106C3.22862 21.9359 2.36636 21.9044 1.51409 21.9359H1.47935C0.840217 21.9359 0.840217 22.9869 1.47935 22.9869Z"
        fill="#1A162E" />
    <path
        d="M10.5283 8.17145C10.8802 7.35156 11.4105 6.47395 11.2122 5.53844C11.1329 5.16012 10.9347 4.81315 10.687 4.53471C10.4986 4.31915 10.3253 4.11423 10.2857 3.80941C10.2411 3.44686 10.4293 3.06835 10.5484 2.73731C10.6771 2.37989 10.8061 2.02267 10.9348 1.66521C11.029 1.40236 10.8308 1.08711 10.588 1.01874C10.3104 0.939928 10.0726 1.11864 9.97839 1.38661C9.87434 1.68098 9.76528 1.97517 9.66124 2.26952C9.54232 2.59542 9.38867 2.93175 9.32922 3.27326C9.26475 3.64644 9.27961 4.03008 9.40855 4.38731C9.54232 4.7605 9.76528 5.01801 10.0081 5.3071C10.3203 5.68029 10.3154 6.13229 10.1321 6.56835C9.9784 6.92578 9.82475 7.28299 9.67127 7.6351C9.56222 7.89263 9.60197 8.20278 9.84964 8.35509C10.0676 8.49202 10.4195 8.42896 10.5284 8.17143L10.5283 8.17145Z"
        fill="#1A162E" />
    <path
        d="M13.9863 9.75348C14.3382 8.93359 14.8685 8.05598 14.6702 7.12047C14.5909 6.74215 14.3927 6.39518 14.145 6.11674C13.9566 5.90118 13.7833 5.69626 13.7437 5.39144C13.6991 5.02889 13.8873 4.65038 14.0064 4.31934C14.1352 3.96192 14.2641 3.6047 14.3929 3.24724C14.487 2.98439 14.2888 2.66914 14.046 2.60078C13.7684 2.52196 13.5306 2.70067 13.4364 2.96864C13.3323 3.26301 13.2233 3.5572 13.1192 3.85155C13.0003 4.17745 12.8467 4.51378 12.7872 4.85529C12.7228 5.22847 12.7376 5.61211 12.8666 5.96934C13.0003 6.34253 13.2233 6.60004 13.4661 6.88913C13.7783 7.26231 13.7734 7.71432 13.5901 8.15038C13.4364 8.5078 13.2828 8.86502 13.1293 9.21713C13.0202 9.47466 13.06 9.78481 13.3076 9.93712C13.5206 10.074 13.8725 10.011 13.9864 9.75346L13.9863 9.75348Z"
        fill="#1A162E" />
</svg>
    