<svg width="20" height="20" viewBox="0 0 20 20" fill="none" xmlns="http://www.w3.org/2000/svg">
    <path
        d="M9.45214 3.26562C9.14143 3.26562 8.88965 3.51741 8.88965 3.82812V9.45303C8.88965 9.76374 9.14144 10.0155 9.45214 10.0155C9.76284 10.0155 10.0146 9.76373 10.0146 9.45303V3.82812C10.0146 3.5174 9.76284 3.26562 9.45214 3.26562Z"
        fill="#1A162E" />
    <path
        d="M7.20214 13.0156C6.89143 13.0156 6.63965 13.2674 6.63965 13.5781V16.9531C6.63965 17.2638 6.89144 17.5156 7.20214 17.5156C7.51284 17.5156 7.76463 17.2638 7.76463 16.9531V13.5781C7.76463 13.2674 7.51284 13.0156 7.20214 13.0156Z"
        fill="#1A162E" />
    <path
        d="M18.8271 18.2657H14.4262C14.718 17.8448 14.8897 17.3344 14.8897 16.7845V13.372C14.8897 12.0557 13.9088 10.965 12.6397 10.7906V3.26561C12.6397 1.81824 11.4621 0.640625 10.0147 0.640625C8.5674 0.640625 7.38975 1.81827 7.38975 3.26561V10.7906C6.12063 10.9649 5.13975 12.0557 5.13975 13.372V16.7845C5.13975 17.3344 5.31145 17.8448 5.6034 18.2657H1.20214C0.891426 18.2657 0.639648 18.5175 0.639648 18.8282C0.639648 19.1389 0.891436 19.3907 1.20214 19.3907H18.8271C19.1378 19.3907 19.3895 19.1389 19.3895 18.8282C19.3895 18.5175 19.1378 18.2657 18.8271 18.2657H18.8271ZM8.51463 3.26571C8.51463 2.43857 9.18749 1.76571 10.0146 1.76571C10.8418 1.76571 11.5146 2.43857 11.5146 3.26571V10.7657H8.51463V3.26571ZM7.74588 18.2657C6.92919 18.2657 6.26463 17.6012 6.26463 16.7845V13.372C6.26463 12.5553 6.92919 11.8907 7.74588 11.8907H12.2832C13.0999 11.8907 13.7645 12.5553 13.7645 13.372V16.7845C13.7645 17.6012 13.0999 18.2657 12.2832 18.2657H7.74588Z"
        fill="#1A162E" />
</svg>
    