<svg width="30" height="30" viewBox="0 0 30 30" fill="none" xmlns="http://www.w3.org/2000/svg">
    <path
        d="M10.9788 1.63133C13.2628 -0.431286 16.7372 -0.431286 19.0212 1.63133L25.7193 7.67986C26.6552 8.52508 27.3011 9.64373 27.5651 10.8769L29.4543 19.7018C30.0985 22.7112 28.3613 25.7201 25.433 26.6668L16.8458 29.4432C15.6459 29.8312 14.3541 29.8312 13.1542 29.4432L4.56699 26.6668C1.63867 25.7201 -0.0984898 22.7112 0.545742 19.7018L2.43492 10.8769C2.69892 9.64373 3.34477 8.52508 4.28074 7.67987L10.9788 1.63133Z"
        fill="#FFB700" />
    <path
        d="M10.9788 1.63133C13.2628 -0.431286 16.7372 -0.431286 19.0212 1.63133L25.7193 7.67986C26.6552 8.52508 27.3011 9.64373 27.5651 10.8769L29.4543 19.7018C30.0985 22.7112 28.3613 25.7201 25.433 26.6668L16.8458 29.4432C15.6459 29.8312 14.3541 29.8312 13.1542 29.4432L4.56699 26.6668C1.63867 25.7201 -0.0984898 22.7112 0.545742 19.7018L2.43492 10.8769C2.69892 9.64373 3.34477 8.52508 4.28074 7.67987L10.9788 1.63133Z"
        fill="white" fill-opacity="0.6" />
</svg>
    