<svg width="24" height="24" viewBox="0 0 24 24" fill="none" xmlns="http://www.w3.org/2000/svg">
    <path
        d="M3.57697 10.4286H3.66345L5.88896 22.56C5.9351 22.8115 6.17717 23 6.45978 23H15.6845C15.967 23 16.2092 22.8167 16.2554 22.56L18.3886 10.9368C18.4925 10.7639 18.5789 10.5859 18.6596 10.4077C18.9365 10.3658 19.144 10.1614 19.144 9.89961V7.80432C19.144 7.73101 19.1266 7.6577 19.092 7.59474C18.9075 6.09663 18.0658 4.75566 16.7974 3.73949L17.979 2.04774H20.4234C20.7406 2.04774 21 1.81202 21 1.52387C21 1.23571 20.7406 1 20.4234 1H17.6618C17.4659 1 17.2813 1.09436 17.1717 1.24624L15.8745 3.11107C14.5311 2.31503 12.865 1.83831 11.0719 1.83831C6.92082 1.83831 3.43887 4.36309 3.05193 7.60005C3.02317 7.66284 3 7.73633 3 7.80964V9.90493C3.00019 10.1929 3.25963 10.4286 3.5768 10.4286L3.57697 10.4286ZM15.194 21.9525H6.94378L4.82792 10.4286H17.3039L15.194 21.9525ZM11.0717 2.88571C12.6399 2.88571 14.0985 3.29435 15.2689 3.99096L14.2657 5.43663C14.0985 5.68287 14.1734 6.00243 14.4445 6.15958C14.5425 6.21202 14.6462 6.23815 14.75 6.23815C14.9404 6.23815 15.1305 6.14905 15.2402 5.99191L16.1799 4.63532C17.0331 5.36334 17.6385 6.26951 17.875 7.28061H4.26885C4.84526 4.77666 7.69911 2.88569 11.0717 2.88569L11.0717 2.88571ZM4.15327 8.33317H17.9902V9.38073H4.15327V8.33317Z"
        fill="#1A162E" />
</svg>
    