<svg width="32" height="29" viewBox="0 0 32 29" fill="none" xmlns="http://www.w3.org/2000/svg">
    <path
        d="M15.0489 0.927052C15.3483 0.0057416 16.6517 0.00573993 16.9511 0.927051L19.8167 9.74671C19.9506 10.1587 20.3346 10.4377 20.7678 10.4377H30.0413C31.0101 10.4377 31.4128 11.6773 30.6291 12.2467L23.1267 17.6976C22.7762 17.9522 22.6295 18.4036 22.7634 18.8156L25.6291 27.6353C25.9284 28.5566 24.874 29.3227 24.0902 28.7533L16.5878 23.3024C16.2373 23.0478 15.7627 23.0478 15.4122 23.3024L7.90976 28.7533C7.12605 29.3227 6.07157 28.5566 6.37092 27.6353L9.2366 18.8156C9.37048 18.4036 9.22382 17.9522 8.87333 17.6976L1.37088 12.2467C0.587169 11.6773 0.989944 10.4377 1.95867 10.4377H11.2322C11.6654 10.4377 12.0494 10.1587 12.1833 9.74671L15.0489 0.927052Z"
        fill="#67B044" />
    <path
        d="M15.0489 0.927052C15.3483 0.0057416 16.6517 0.00573993 16.9511 0.927051L19.8167 9.74671C19.9506 10.1587 20.3346 10.4377 20.7678 10.4377H30.0413C31.0101 10.4377 31.4128 11.6773 30.6291 12.2467L23.1267 17.6976C22.7762 17.9522 22.6295 18.4036 22.7634 18.8156L25.6291 27.6353C25.9284 28.5566 24.874 29.3227 24.0902 28.7533L16.5878 23.3024C16.2373 23.0478 15.7627 23.0478 15.4122 23.3024L7.90976 28.7533C7.12605 29.3227 6.07157 28.5566 6.37092 27.6353L9.2366 18.8156C9.37048 18.4036 9.22382 17.9522 8.87333 17.6976L1.37088 12.2467C0.587169 11.6773 0.989944 10.4377 1.95867 10.4377H11.2322C11.6654 10.4377 12.0494 10.1587 12.1833 9.74671L15.0489 0.927052Z"
        fill="white" fill-opacity="0.6" />
</svg>
    