<svg width="30" height="30" viewBox="0 0 30 30" fill="none" xmlns="http://www.w3.org/2000/svg">
    <path
        d="M13.8519 0.475538C14.587 0.171056 15.413 0.171056 16.1481 0.475538L24.4586 3.91786C25.1936 4.22234 25.7777 4.80636 26.0821 5.54145L29.5245 13.8519C29.8289 14.587 29.8289 15.413 29.5245 16.1481L26.0821 24.4586C25.7777 25.1936 25.1936 25.7777 24.4586 26.0821L16.1481 29.5245C15.413 29.8289 14.587 29.8289 13.8519 29.5245L5.54145 26.0821C4.80636 25.7777 4.22234 25.1936 3.91786 24.4586L0.475538 16.1481C0.171056 15.413 0.171056 14.587 0.475538 13.8519L3.91786 5.54145C4.22234 4.80636 4.80636 4.22234 5.54145 3.91786L13.8519 0.475538Z"
        fill="#F94545" />
    <path
        d="M13.8519 0.475538C14.587 0.171056 15.413 0.171056 16.1481 0.475538L24.4586 3.91786C25.1936 4.22234 25.7777 4.80636 26.0821 5.54145L29.5245 13.8519C29.8289 14.587 29.8289 15.413 29.5245 16.1481L26.0821 24.4586C25.7777 25.1936 25.1936 25.7777 24.4586 26.0821L16.1481 29.5245C15.413 29.8289 14.587 29.8289 13.8519 29.5245L5.54145 26.0821C4.80636 25.7777 4.22234 25.1936 3.91786 24.4586L0.475538 16.1481C0.171056 15.413 0.171056 14.587 0.475538 13.8519L3.91786 5.54145C4.22234 4.80636 4.80636 4.22234 5.54145 3.91786L13.8519 0.475538Z"
        fill="white" fill-opacity="0.3" />
</svg>
    