<svg width="24" height="24" viewBox="0 0 24 24" fill="none" xmlns="http://www.w3.org/2000/svg">
    <path
        d="M10.9922 22.0429H3.69555L2.91451 7.68834H13.3924L13.2972 9.33428H13.2971C13.2866 9.46028 13.3273 9.58527 13.4097 9.68073C13.4923 9.77619 13.6097 9.83426 13.7353 9.8416C13.8618 9.85796 13.9894 9.81924 14.0859 9.73513C14.1823 9.65102 14.2384 9.52953 14.2401 9.40137L14.3449 7.68831H14.8497C14.9761 7.68831 15.0972 7.63791 15.1866 7.54813C15.2758 7.45851 15.3259 7.33669 15.3259 7.20986C15.3259 7.08303 15.2758 6.96121 15.1866 6.87159C15.0972 6.7818 14.9761 6.73141 14.8497 6.73141H8.62971V4.15708C8.63021 3.80162 8.80944 3.47054 9.10593 3.2768L11.2396 1.87966V1.8795C11.3461 1.81107 11.4203 1.70227 11.4456 1.57777C11.4707 1.45328 11.4444 1.32395 11.373 1.21931C11.2306 0.997527 10.9368 0.933444 10.7157 1.07563L8.55345 2.47293C8.00013 2.85242 7.67159 3.48407 7.67708 4.15711V6.73144H1.47623C1.21327 6.73144 1 6.94555 1 7.20988C1 7.33671 1.05017 7.45853 1.13953 7.54815C1.2289 7.63794 1.34999 7.68833 1.47623 7.68833H1.96211L2.76225 22.5406C2.77238 22.7974 2.98267 23.0002 3.23847 23H10.9825C11.1088 23 11.2299 22.9496 11.3192 22.8598C11.4086 22.77 11.4588 22.6484 11.4588 22.5214C11.4588 22.2609 11.2513 22.0481 10.992 22.0429L10.9922 22.0429Z"
        fill="#1A162E" />
    <path
        d="M19.4706 16.3011L22.9188 11.3056C23.066 11.0863 23.0085 10.7886 22.7901 10.6406C22.5718 10.4926 22.2755 10.5505 22.1282 10.7698L18.318 16.2724H16.3559C16.3241 16.131 16.3082 15.9865 16.3082 15.8416C16.303 15.2088 16.5479 14.5997 16.9887 14.1478C17.4298 13.6957 18.0311 13.4377 18.6609 13.4302C18.9108 13.4272 19.1593 13.4693 19.3943 13.5545C19.6466 13.6368 19.918 13.5005 20.0039 13.2483C20.0134 13.1817 20.0134 13.114 20.0039 13.0474V12.9805V12.9803C20.0347 11.7974 19.4347 10.6878 18.4304 10.0699C17.4259 9.45172 16.1696 9.41887 15.1346 9.98359C14.0996 10.5485 13.4431 11.6252 13.4124 12.8081C12.834 13.0806 12.3455 13.5138 12.0045 14.0565C11.6635 14.5992 11.4844 15.2287 11.4883 15.8704C11.4912 16.0951 11.5134 16.3194 11.555 16.5402C11.5109 16.629 11.4943 16.7291 11.5073 16.8274L12.4597 22.5693H12.4599C12.4971 22.7997 12.6943 22.9696 12.9267 22.9713H20.547C20.7794 22.9696 20.9766 22.7997 21.0138 22.5693L21.9662 16.8274C21.981 16.7218 21.9609 16.6142 21.9091 16.5212C21.9538 16.2973 21.9793 16.07 21.9853 15.8417C21.9842 15.4909 21.9295 15.1424 21.8234 14.8082C21.7445 14.544 21.4672 14.394 21.2043 14.4733C20.9411 14.5525 20.792 14.8311 20.8709 15.0952C20.9498 15.3364 20.9915 15.588 20.9946 15.8417C21.0117 15.9943 21.018 16.1478 21.0137 16.3012L19.4706 16.3011ZM16.7273 10.5593C17.2723 10.5623 17.7995 10.7544 18.2196 11.1031C18.6399 11.4521 18.9269 11.936 19.0324 12.4732H18.6609C17.953 12.4759 17.2661 12.7149 16.7082 13.1527C16.1563 12.7427 15.4896 12.5182 14.8032 12.5116H14.4316C14.5306 11.9697 14.8135 11.4791 15.2321 11.1231C15.6505 10.7672 16.1789 10.5679 16.7272 10.5592L16.7273 10.5593ZM14.8222 13.4301V13.4303C15.264 13.4298 15.6969 13.556 16.07 13.7939C15.6338 14.3725 15.3964 15.0778 15.3938 15.8035C15.383 15.9469 15.383 16.0907 15.3938 16.2341H12.4409C12.4311 16.1004 12.4311 15.9661 12.4409 15.8322C12.4384 15.2026 12.6829 14.5975 13.1216 14.1477C13.5601 13.6982 14.1576 13.4403 14.7842 13.4303L14.8222 13.4301ZM20.1755 22.0429H13.3172L12.5265 17.258H20.928L20.1755 22.0429Z"
        fill="#1A162E" />
</svg>
    