<svg width="32" height="30" viewBox="0 0 32 30" fill="none" xmlns="http://www.w3.org/2000/svg">
    <path
        d="M13.0611 1.13526C14.8135 -0.137963 17.1865 -0.137965 18.9389 1.13526L29.229 8.61145C30.9815 9.88467 31.7148 12.1415 31.0454 14.2016L27.1149 26.2984C26.4455 28.3585 24.5258 29.7533 22.3596 29.7533H9.64037C7.47424 29.7533 5.55445 28.3585 4.88508 26.2984L0.95461 14.2016C0.285239 12.1415 1.01853 9.88468 2.77097 8.61146L13.0611 1.13526Z"
        fill="#F94545" />
    <path
        d="M13.0611 1.13526C14.8135 -0.137963 17.1865 -0.137965 18.9389 1.13526L29.229 8.61145C30.9815 9.88467 31.7148 12.1415 31.0454 14.2016L27.1149 26.2984C26.4455 28.3585 24.5258 29.7533 22.3596 29.7533H9.64037C7.47424 29.7533 5.55445 28.3585 4.88508 26.2984L0.95461 14.2016C0.285239 12.1415 1.01853 9.88468 2.77097 8.61146L13.0611 1.13526Z"
        fill="white" fill-opacity="0.4" />
</svg>
    