<svg width="24" height="24" viewBox="0 0 24 24" fill="none" xmlns="http://www.w3.org/2000/svg">
    <path fill-rule="evenodd" clip-rule="evenodd"
        d="M16.4283 17.5892C13.4231 17.6401 10.473 17.638 7.57275 17.5892C4.3535 17.5892 2 15.293 2 12.1379V7.48832C2 4.33322 4.3535 2.037 7.57275 2.037C10.4889 1.98715 13.4411 1.98819 16.4283 2.037C19.6476 2.037 22 4.33426 22 7.48832V12.1379C22 15.293 19.6476 17.5892 16.4283 17.5892Z"
        stroke="#1A162E" stroke-width="1.5" stroke-linecap="round" stroke-linejoin="round" />
    <path fill-rule="evenodd" clip-rule="evenodd"
        d="M15 9.99514C15 9.18401 10.8425 6.58912 10.3709 7.0557C9.8993 7.52228 9.85395 12.424 10.3709 12.9346C10.8879 13.4469 15 10.8063 15 9.99514Z"
        stroke="#1A162E" stroke-width="1.5" stroke-linecap="round" stroke-linejoin="round" />
    <path d="M12 18V22H8H16" stroke="#1A162E" stroke-width="1.5" />
</svg>
    