<svg width="26" height="30" viewBox="0 0 26 30" fill="none" xmlns="http://www.w3.org/2000/svg">
    <path
        d="M11.5 0.866025C12.4282 0.330127 13.5718 0.330127 14.5 0.866025L24.4904 6.63397C25.4186 7.16987 25.9904 8.16025 25.9904 9.23205V20.768C25.9904 21.8397 25.4186 22.8301 24.4904 23.366L14.5 29.134C13.5718 29.6699 12.4282 29.6699 11.5 29.134L1.50962 23.366C0.581416 22.8301 0.00961876 21.8397 0.00961876 20.768V9.23205C0.00961876 8.16025 0.581416 7.16987 1.50962 6.63397L11.5 0.866025Z"
        fill="#7644E1" />
    <path
        d="M11.5 0.866025C12.4282 0.330127 13.5718 0.330127 14.5 0.866025L24.4904 6.63397C25.4186 7.16987 25.9904 8.16025 25.9904 9.23205V20.768C25.9904 21.8397 25.4186 22.8301 24.4904 23.366L14.5 29.134C13.5718 29.6699 12.4282 29.6699 11.5 29.134L1.50962 23.366C0.581416 22.8301 0.00961876 21.8397 0.00961876 20.768V9.23205C0.00961876 8.16025 0.581416 7.16987 1.50962 6.63397L11.5 0.866025Z"
        fill="white" fill-opacity="0.4" />
</svg>
    