<svg width="24" height="24" viewBox="0 0 24 24" fill="none" xmlns="http://www.w3.org/2000/svg">
    <path
        d="M12.0002 1C7.58939 1 4 4.52677 4 8.85904C4 11.1679 5.02576 13.2404 6.64565 14.6796V22.3542C6.64621 22.5889 6.77599 22.8049 6.98481 22.9186C7.19364 23.0326 7.44898 23.0264 7.65193 22.9028L12 20.2523L16.3532 22.9028C16.5562 23.0264 16.8115 23.0326 17.0204 22.9186C17.2292 22.8049 17.359 22.5889 17.3595 22.3542V14.6759C18.9766 13.237 20 11.1657 20 8.85904C20 4.52658 16.4108 1 11.9998 1H12.0002ZM12.0002 2.29428C15.6988 2.29428 18.6827 5.22628 18.6827 8.85904C18.6827 12.4918 15.699 15.4229 12.0002 15.4229C8.30136 15.4229 5.31767 12.4922 5.31767 8.85904C5.31767 5.22591 8.30136 2.29428 12.0002 2.29428ZM11.959 4.17754C11.693 4.19416 11.4632 4.36461 11.3761 4.60982L10.559 6.90133L8.0703 6.95063C7.78941 6.95713 7.54346 7.13552 7.45668 7.39572C7.36973 7.65591 7.4611 7.94121 7.68426 8.10715L9.66722 9.57334L8.94791 11.8939C8.86795 12.1559 8.96629 12.4387 9.19351 12.5992C9.42053 12.7599 9.72698 12.7634 9.95804 12.6081L12.0002 11.2241L14.0436 12.6081C14.2747 12.7653 14.5826 12.763 14.8108 12.6019C15.0391 12.441 15.1376 12.1568 15.0563 11.894L14.3358 9.57337L16.32 8.10718C16.5433 7.94106 16.6345 7.65541 16.5474 7.39524C16.4603 7.13486 16.2137 6.95665 15.9327 6.95069L13.444 6.90139L12.6269 4.60988C12.5295 4.33596 12.2562 4.15901 11.9591 4.17761L11.959 4.17754ZM12.0002 6.78635L12.345 7.74693C12.4362 8.00171 12.6807 8.17415 12.9576 8.1792L14.0037 8.20069L13.1686 8.81621C12.9483 8.97926 12.8553 9.25859 12.9357 9.51641L13.2381 10.4909L12.3798 9.90951C12.1524 9.75531 11.8505 9.75531 11.6232 9.90951L10.7649 10.4909L11.0673 9.51641C11.1476 9.25857 11.0546 8.97924 10.8344 8.81621L9.99924 8.20069L11.0454 8.1792C11.3224 8.17415 11.5667 8.00171 11.6579 7.74693L12.0002 6.78635ZM16.042 15.629V21.193L12.3502 18.9432C12.1373 18.8136 11.8682 18.8136 11.6553 18.9432L7.96352 21.193V15.6318C9.15032 16.317 10.5272 16.7175 12.0002 16.7175C13.4752 16.7175 14.8541 16.3161 16.042 15.6293V15.629Z"
        fill="#1A162E" />
</svg>
    