<svg width="13" height="16" viewBox="0 0 13 16" fill="none" xmlns="http://www.w3.org/2000/svg">
    <path fill-rule="evenodd" clip-rule="evenodd"
        d="M2.15263 10.3485L0.945758 11.5553C0.734226 11.7669 0.734226 12.1098 0.945761 12.3214C1.15729 12.5329 1.50026 12.5329 1.71179 12.3214L2.91866 11.1145L6.40445 11.009C6.95614 10.9923 7.48066 10.7657 7.87096 10.3754L11.3189 6.92744C12.6939 5.55245 12.6939 3.32319 11.3189 1.94822C9.94394 0.573249 7.71469 0.573249 6.33969 1.94822L2.89174 5.39618C2.50146 5.78648 2.27483 6.311 2.25814 6.86269L2.15263 10.3485ZM3.27029 9.23083L3.34097 6.89546C3.34931 6.61961 3.46263 6.35737 3.65777 6.1622L7.10575 2.71425C8.05764 1.76235 9.60099 1.76235 10.5529 2.71425C11.5048 3.66615 11.5048 5.20949 10.5529 6.16139L9.39651 7.31777C9.36547 7.31224 9.33354 7.30935 9.3009 7.30935H6.72382L8.98909 5.04407C9.20064 4.83252 9.20064 4.48956 8.98909 4.27804C8.77757 4.0665 8.43459 4.0665 8.22307 4.27804L3.27029 9.23083ZM5.64048 8.39268H8.3216L7.10493 9.60934C6.90977 9.80451 6.64752 9.91782 6.37168 9.92616L4.03631 9.99685L5.64048 8.39268Z"
        fill="white" />
    <path fill-rule="evenodd" clip-rule="evenodd"
        d="M2.15263 10.3485L0.945758 11.5553C0.734226 11.7669 0.734226 12.1098 0.945761 12.3214C1.15729 12.5329 1.50026 12.5329 1.71179 12.3214L2.91866 11.1145L6.40445 11.009C6.95614 10.9923 7.48066 10.7657 7.87096 10.3754L11.3189 6.92744C12.6939 5.55245 12.6939 3.32319 11.3189 1.94822C9.94394 0.573249 7.71469 0.573249 6.33969 1.94822L2.89174 5.39618C2.50146 5.78648 2.27483 6.311 2.25814 6.86269L2.15263 10.3485ZM3.27029 9.23083L3.34097 6.89546C3.34931 6.61961 3.46263 6.35737 3.65777 6.1622L7.10575 2.71425C8.05764 1.76235 9.60099 1.76235 10.5529 2.71425C11.5048 3.66615 11.5048 5.20949 10.5529 6.16139L9.39651 7.31777C9.36547 7.31224 9.33354 7.30935 9.3009 7.30935H6.72382L8.98909 5.04407C9.20064 4.83252 9.20064 4.48956 8.98909 4.27804C8.77757 4.0665 8.43459 4.0665 8.22307 4.27804L3.27029 9.23083ZM5.64048 8.39268H8.3216L7.10493 9.60934C6.90977 9.80451 6.64752 9.91782 6.37168 9.92616L4.03631 9.99685L5.64048 8.39268Z"
        fill="#2FE3C1" />
</svg>
    