<svg width="182" height="171" viewBox="0 0 182 171" fill="none" xmlns="http://www.w3.org/2000/svg">
<g clip-path="url(#clip0_41098_903)">
<path fill-rule="evenodd" clip-rule="evenodd" d="M113.379 157.576L113.422 181.684C113.43 185.909 116.874 189.329 121.116 189.321C125.356 189.313 128.788 185.881 128.78 181.656L128.736 157.548L162.556 121.617C167.909 115.93 170.881 108.422 170.867 100.626L170.742 31.7506C170.692 4.28436 148.305 -17.9405 120.739 -17.8904C93.1724 -17.8404 70.8662 4.46581 70.916 31.9321L71.0413 100.808C71.0556 108.604 74.0555 116.101 79.4287 121.768L113.379 157.576ZM113.338 135.25L90.5927 111.26C87.9061 108.426 86.4063 104.678 86.399 100.78L86.274 31.9039C86.2393 12.889 101.682 -2.55379 120.766 -2.58847C139.851 -2.62318 155.349 12.7634 155.384 31.7783L155.426 54.8777C155.06 55.1332 154.711 55.4238 154.385 55.7504L128.598 81.537L128.516 36.2864C128.508 32.0606 125.064 28.6414 120.823 28.6494C116.582 28.6569 113.15 32.0888 113.158 36.3143L113.338 135.25ZM128.638 103.177L155.465 76.3499L155.509 100.654C155.516 104.552 154.03 108.306 151.354 111.149L128.696 135.222L128.638 103.177Z" fill="#4B5765"/>
</g>
<defs>
<clipPath id="clip0_41098_903">
<rect width="241" height="226" fill="white" transform="translate(0 -36)"/>
</clipPath>
</defs>
</svg>
