<svg width="14" height="16" viewBox="0 0 14 16" fill="none" xmlns="http://www.w3.org/2000/svg">
    <path d="M12.2415 12.3076C12.2415 11.9678 11.9803 11.6923 11.6581 11.6923H2.32479C2.00262 11.6923 1.74146 11.9678 1.74146 12.3076C1.74146 12.6475 2.00262 12.923 2.32479 12.923H11.6581C11.9803 12.923 12.2415 12.6475 12.2415 12.3076Z" fill="#FFB700"/>
    <path d="M4.60542 1.8457L3.6988 2.07647L6.19774 6.6426L3.3535 7.44657L2.70959 6.30724L0.933666 6.0233C0.885325 6.01558 0.849961 6.07026 0.874405 6.11493L2.5548 9.18537C2.57153 9.21592 2.59046 9.2445 2.61127 9.27096C2.75698 9.45613 2.99524 9.53727 3.22041 9.46933L3.93873 9.25256L3.93849 9.2518L12.4681 6.84072C12.9493 6.70469 13.235 6.18281 13.106 5.67512C12.977 5.1674 12.4823 4.8661 12.0011 5.00213L8.66291 5.94576L4.60542 1.8457Z" fill="#FFB700"/>
    </svg>
    