<svg width="137" height="137" viewBox="0 0 137 137" fill="none" xmlns="http://www.w3.org/2000/svg">
<g opacity="0.2">
<path d="M119.792 114.166C119.792 111.014 117.236 108.458 114.083 108.458H22.7498C19.5972 108.458 17.0415 111.014 17.0415 114.166C17.0415 117.319 19.5972 119.875 22.7498 119.875H114.083C117.236 119.875 119.792 117.319 119.792 114.166Z" fill="#0071DC"/>
<path d="M119.792 114.166C119.792 111.014 117.236 108.458 114.083 108.458H22.7498C19.5972 108.458 17.0415 111.014 17.0415 114.166C17.0415 117.319 19.5972 119.875 22.7498 119.875H114.083C117.236 119.875 119.792 117.319 119.792 114.166Z" fill="white" fill-opacity="0.7"/>
</g>
<g opacity="0.2">
<path d="M45.0672 17.125L36.1953 19.2656L60.6492 61.6212L32.8162 69.0788L26.5152 58.5104L9.13647 55.8766C8.66342 55.805 8.31735 56.3121 8.55656 56.7266L25.0004 85.208C25.1641 85.4914 25.3493 85.7566 25.553 86.002C26.9789 87.7197 29.3105 88.4723 31.5139 87.8421L38.5431 85.8314L38.5408 85.8242L122.009 63.459C126.718 62.1971 129.513 57.3562 128.251 52.6468C126.989 47.9372 122.149 45.1424 117.439 46.4042L84.7726 55.1573L45.0672 17.125Z" fill="#0071DC"/>
<path d="M45.0672 17.125L36.1953 19.2656L60.6492 61.6212L32.8162 69.0788L26.5152 58.5104L9.13647 55.8766C8.66342 55.805 8.31735 56.3121 8.55656 56.7266L25.0004 85.208C25.1641 85.4914 25.3493 85.7566 25.553 86.002C26.9789 87.7197 29.3105 88.4723 31.5139 87.8421L38.5431 85.8314L38.5408 85.8242L122.009 63.459C126.718 62.1971 129.513 57.3562 128.251 52.6468C126.989 47.9372 122.149 45.1424 117.439 46.4042L84.7726 55.1573L45.0672 17.125Z" fill="white" fill-opacity="0.7"/>
</g>
</svg>
