<svg width="424" height="265" viewBox="0 0 424 265" fill="none" xmlns="http://www.w3.org/2000/svg">
<path opacity="0.5" d="M348.101 221.726C230.361 284.945 140.473 235.274 153.132 188.181C158.964 166.487 175.351 90.9996 215.169 53.3545C261.873 9.19899 368.155 -3.59714 396.212 38.5175C426.036 83.2864 421.517 182.306 348.101 221.726Z" fill="#0071DC"/>
<path opacity="0.5" d="M351.148 230.624C220.911 299.143 121.484 245.307 135.488 194.268C141.938 170.756 160.064 88.9421 204.107 48.1419C255.571 0.467887 368.747 -18.2792 402.262 31.0127C435.255 79.5337 432.356 187.9 351.148 230.624Z" stroke="#0071DC" stroke-width="3"/>
<path d="M227.212 21.2236C116.021 -15.6923 30.8075 96.2675 2.09961 156.862C56.1311 170.146 169.726 198.252 191.852 204.405C196.613 97.8518 231.88 66.3195 248.918 63.8724C243.783 53.6181 232.253 30.7319 227.212 21.2236Z" fill="#9567F9"/>
<path d="M89.3114 71.2148C65.7706 86.8541 40.2678 125.952 30.4591 143.546L172.882 190.073L189.753 120.869C161.373 107.316 101.553 78.4089 89.3114 71.2148Z" fill="white" fill-opacity="0.88"/>
<path d="M148.74 25.5977C137.7 29.9049 113.427 49.6818 102.67 59.0321L190.665 112.553L217.4 76.2585C200.669 63.0387 163.513 34.3988 148.74 25.5977Z" fill="white" fill-opacity="0.88"/>
<path d="M219.318 20.5259C219.318 20.5259 196.404 17.3783 181 20.5259L219.318 74.3617L241.567 59.1562L219.318 20.5259Z" fill="white" fill-opacity="0.88"/>
<path d="M191.853 204.405C196.614 97.8526 231.881 66.3202 248.919 63.8732V69.8161C202.986 93.5877 192.903 175.973 193.604 214.194L0 168.049L2.10058 156.863C56.1321 170.147 169.727 198.253 191.853 204.405Z" fill="#7644E1"/>
<path d="M158.943 167.043L161.332 167.851L160.904 169.112L158.516 168.304L158.943 167.043ZM172.111 171.668L174.289 172.405L173.861 173.666L171.683 172.929L172.111 171.668ZM169.757 169.881C169.45 169.777 169.169 169.745 168.915 169.785C168.662 169.82 168.41 169.933 168.159 170.124C167.909 170.31 167.636 170.584 167.339 170.946C166.831 171.555 166.336 172.075 165.852 172.507C165.365 172.931 164.845 173.214 164.291 173.357C163.732 173.498 163.102 173.451 162.4 173.213C161.731 172.987 161.205 172.632 160.821 172.147C160.438 171.664 160.209 171.096 160.135 170.447C160.057 169.789 160.145 169.086 160.399 168.337C160.593 167.766 160.855 167.278 161.185 166.873C161.51 166.466 161.893 166.151 162.336 165.928C162.773 165.704 163.257 165.582 163.786 165.563C164.316 165.544 164.883 165.637 165.488 165.841L164.701 168.161C164.377 168.052 164.079 167.99 163.807 167.976C163.535 167.962 163.292 167.994 163.079 168.072C162.868 168.145 162.691 168.259 162.548 168.415C162.399 168.569 162.287 168.757 162.213 168.978C162.101 169.306 162.075 169.598 162.133 169.852C162.191 170.106 162.314 170.319 162.502 170.49C162.687 170.655 162.92 170.785 163.201 170.88C163.476 170.973 163.733 171.006 163.971 170.978C164.211 170.945 164.459 170.834 164.715 170.644C164.967 170.453 165.255 170.172 165.579 169.801C166.087 169.192 166.587 168.676 167.079 168.254C167.571 167.831 168.094 167.549 168.648 167.406C169.202 167.263 169.83 167.31 170.531 167.547C171.227 167.783 171.766 168.145 172.148 168.635C172.524 169.122 172.742 169.701 172.804 170.371C172.86 171.038 172.758 171.755 172.499 172.52C172.331 173.016 172.099 173.487 171.803 173.934C171.501 174.379 171.135 174.75 170.702 175.049C170.27 175.347 169.769 175.532 169.197 175.603C168.62 175.672 167.97 175.584 167.247 175.339L168.037 173.011C168.431 173.145 168.777 173.205 169.076 173.192C169.37 173.177 169.624 173.113 169.837 172.999C170.046 172.877 170.22 172.72 170.358 172.526C170.496 172.332 170.602 172.125 170.677 171.904C170.794 171.559 170.828 171.255 170.779 170.992C170.732 170.724 170.619 170.497 170.442 170.311C170.261 170.117 170.033 169.974 169.757 169.881Z" fill="#0071DC"/>
<path d="M184.252 96.9355L185.73 98.3063L185.004 99.0865L183.526 97.7158L184.252 96.9355ZM192.345 104.619L193.692 105.869L192.966 106.649L191.619 105.4L192.345 104.619ZM191.213 102.545C191.023 102.368 190.828 102.253 190.63 102.199C190.434 102.142 190.213 102.142 189.967 102.199C189.724 102.253 189.434 102.364 189.099 102.531C188.528 102.809 187.996 103.027 187.502 103.184C187.007 103.334 186.534 103.37 186.083 103.294C185.629 103.214 185.184 102.972 184.75 102.57C184.336 102.186 184.069 101.754 183.948 101.275C183.827 100.797 183.846 100.308 184.005 99.8095C184.164 99.3043 184.459 98.8201 184.89 98.3566C185.219 98.0032 185.57 97.7326 185.944 97.5449C186.314 97.354 186.698 97.2498 187.093 97.232C187.486 97.211 187.879 97.2802 188.272 97.44C188.665 97.5994 189.048 97.8525 189.423 98.1996L188.087 99.635C187.886 99.4494 187.689 99.3068 187.495 99.2075C187.301 99.1086 187.114 99.0526 186.933 99.04C186.755 99.024 186.588 99.0495 186.433 99.1162C186.274 99.1802 186.13 99.2802 186.003 99.4172C185.814 99.6207 185.699 99.8245 185.658 100.029C185.617 100.233 185.637 100.429 185.718 100.616C185.799 100.797 185.927 100.968 186.1 101.129C186.27 101.286 186.447 101.394 186.63 101.452C186.816 101.507 187.034 101.507 187.283 101.452C187.529 101.395 187.832 101.284 188.19 101.119C188.76 100.841 189.295 100.628 189.792 100.481C190.29 100.333 190.765 100.299 191.216 100.375C191.667 100.452 192.11 100.692 192.544 101.095C192.974 101.494 193.249 101.935 193.367 102.417C193.481 102.896 193.451 103.39 193.276 103.899C193.098 104.405 192.789 104.894 192.348 105.368C192.063 105.675 191.739 105.943 191.376 106.172C191.01 106.398 190.621 106.549 190.208 106.625C189.794 106.702 189.367 106.672 188.927 106.537C188.483 106.399 188.037 106.122 187.59 105.707L188.93 104.266C189.174 104.492 189.407 104.65 189.63 104.738C189.849 104.824 190.055 104.86 190.248 104.846C190.441 104.826 190.62 104.768 190.784 104.672C190.948 104.575 191.094 104.459 191.221 104.322C191.419 104.109 191.544 103.898 191.594 103.69C191.648 103.479 191.64 103.276 191.572 103.082C191.503 102.882 191.384 102.703 191.213 102.545Z" fill="#0071DC"/>
<path d="M218.974 65.6973L219.556 66.5202L219.12 66.8271L218.538 66.0042L218.974 65.6973ZM222.139 70.2904L222.669 71.0406L222.233 71.3479L221.703 70.5974L222.139 70.2904ZM221.8 69.1588C221.725 69.0529 221.642 68.9764 221.55 68.9295C221.461 68.8813 221.352 68.8585 221.226 68.8613C221.101 68.8627 220.948 68.8869 220.767 68.9341C220.459 69.0117 220.176 69.063 219.918 69.0889C219.661 69.1113 219.426 69.0805 219.213 68.9966C218.999 68.9106 218.807 68.7467 218.636 68.5051C218.473 68.2744 218.386 68.0356 218.377 67.7892C218.367 67.5424 218.427 67.3053 218.556 67.0778C218.686 66.847 218.881 66.6404 219.14 66.4583C219.337 66.3192 219.537 66.223 219.739 66.1696C219.94 66.1147 220.138 66.1031 220.334 66.1353C220.528 66.1654 220.713 66.2398 220.889 66.3583C221.065 66.4768 221.226 66.6401 221.373 66.8484L220.571 67.4134C220.493 67.3015 220.411 67.2117 220.326 67.1431C220.242 67.0746 220.156 67.0278 220.068 67.003C219.983 66.9767 219.899 66.9722 219.816 66.989C219.731 67.0037 219.651 67.0379 219.575 67.0918C219.461 67.1718 219.384 67.2599 219.343 67.3557C219.301 67.4515 219.291 67.549 219.311 67.649C219.332 67.7458 219.377 67.8423 219.445 67.9391C219.512 68.0339 219.587 68.1048 219.671 68.152C219.756 68.1978 219.862 68.2202 219.99 68.2195C220.117 68.2167 220.276 68.1936 220.468 68.1499C220.776 68.0723 221.059 68.0234 221.318 68.0028C221.577 67.9821 221.813 68.0136 222.026 68.0979C222.238 68.1818 222.43 68.3447 222.601 68.5866C222.77 68.8264 222.859 69.0704 222.867 69.3182C222.873 69.5644 222.807 69.8031 222.67 70.0338C222.53 70.2632 222.328 70.4708 222.064 70.6572C221.892 70.7778 221.706 70.8753 221.505 70.9501C221.303 71.0232 221.097 71.0567 220.886 71.0515C220.676 71.0462 220.471 70.9879 220.269 70.8763C220.066 70.7631 219.877 70.5816 219.701 70.3324L220.505 69.7657C220.601 69.9017 220.699 70.0027 220.799 70.0688C220.897 70.1331 220.994 70.1719 221.09 70.1852C221.187 70.1954 221.28 70.1852 221.37 70.1552C221.46 70.1251 221.544 70.0831 221.62 70.0293C221.739 69.9454 221.822 69.8552 221.868 69.7584C221.916 69.6605 221.934 69.5609 221.92 69.4588C221.907 69.3536 221.867 69.2536 221.8 69.1588Z" fill="#0071DC"/>
<path d="M165.639 126.187L164.135 125.637L148.873 167.249L150.377 167.799L165.639 126.187Z" fill="#0071DC"/>
<path d="M200.009 69.9654L199.052 69.123L175.704 95.5689L176.66 96.4112L200.009 69.9654Z" fill="#0071DC"/>
<path d="M235.166 51.7724L234.599 50.8691L214.563 63.4069L215.13 64.3101L235.166 51.7724Z" fill="#0071DC"/>
<path d="M168.788 134.07L167.376 133.533L153.589 169.721L155.001 170.257L168.788 134.07Z" fill="#0071DC"/>
<path d="M201.759 75.8594L200.838 75.0283L179.352 98.7614L180.273 99.5925L201.759 75.8594Z" fill="#0071DC"/>
<path d="M230.795 57.6237L230.145 56.6455L216.399 65.7593L217.049 66.7375L230.795 57.6237Z" fill="#0071DC"/>
<path d="M124.191 48.9689C140.338 47.2822 132.647 39.8018 135.021 36.2207C132.997 38.6035 130.179 41.9203 130.354 43.7759C128.434 44.1293 125.445 47.3853 124.191 48.9689Z" fill="#0666C1"/>
<path d="M123.56 53.1427L124.191 48.9655C138.57 46.9757 132.647 39.7981 135.021 36.2169C135.513 36.0191 137.172 35.7446 138.741 35.271L146.826 33.7559C147.362 39.7033 153.481 38.6074 151.384 43.8952C151.085 44.6506 146.416 43.2051 146.416 43.2051C146.416 43.2051 149.534 50.3013 156.004 53.58C162.474 56.8587 170.982 64.8324 189.258 71.0927C189.072 75.0322 187.171 75.2664 184.704 76.4543C184.028 86.9058 166.27 76.987 165.951 85.9465C165.705 88.8113 164.187 90.5987 162.105 90.4743C154.833 86.1583 145.557 67.8818 144.466 67.1627C143.375 66.4436 136.246 62.0441 132.347 59.7662C131.62 55.258 126.391 53.8971 123.56 53.1427Z" fill="#0071DC"/>
<path d="M123.56 53.1433L124.191 48.9661C132.216 49.9446 148.198 55.8861 149.423 48.0068C150.99 49.9865 152.835 51.7407 156.004 53.5809C141.083 54.4566 145.459 68.2547 132.347 59.7668C131.62 55.2589 126.39 53.8977 123.56 53.1433Z" fill="#0666C1"/>
<path d="M184.666 76.2588L158.771 58.9072C167.075 63.4875 180.976 73.5589 187.923 73.9473C188.192 73.9624 188.356 74.2466 188.177 74.4476C187.35 75.3761 185.795 76.0578 184.946 76.3049C184.85 76.3325 184.748 76.3144 184.666 76.2588Z" fill="#2B6FD9"/>
<path d="M193.556 28.2892L196.163 25.3108C208.523 32.6153 209.111 32.057 212.874 20.876C213.38 20.9141 214.951 21.4014 216.511 21.6667C216.324 29.2723 219.576 36.3964 222.05 35.1921C222.05 35.1921 225.204 44.4732 231.459 49.0223C230.875 57.4846 221.146 50.9083 211.475 58.3037C210.92 55.2323 210.535 53.1372 210.349 52.8425C209.629 51.6994 206.472 47.8991 203.795 44.0792C205.148 38.5107 196.688 30.8202 193.556 28.2892Z" fill="#FFB700"/>
<path d="M213.646 37.6192L214.57 36.3513M208.469 31.1436C209.349 32.0032 210.6 32.6828 211.728 33.9965L208.469 31.1436ZM221.746 55.0561C218.894 53.4067 214.746 44.9112 214.243 40.5998C214.108 39.45 213.903 38.467 213.646 37.6192L221.746 55.0561ZM211.728 33.9965L212.275 32.5618L211.728 33.9965ZM211.728 33.9965C212.146 34.4831 212.547 35.0571 212.906 35.7595L211.728 33.9965ZM212.906 35.7595L213.505 34.5335L212.906 35.7595ZM212.906 35.7595C213.181 36.2978 213.431 36.9113 213.646 37.6192L212.906 35.7595Z" stroke="white"/>
<path d="M212.873 20.877C209.111 32.058 208.523 32.6142 196.163 25.31C199.034 25.897 208.523 27.7592 212.873 20.877Z" fill="#EBA900"/>
<path d="M58.7443 123.967L58.5801 117.312C77.5277 114.291 74.236 100.019 70.6948 92.6619C71.3421 92.1218 73.6241 90.8958 75.7278 89.4111C81.1316 98.9198 88.1128 100.325 93.1612 99.9556L104.836 108.821C119.107 111.431 142.1 112.218 156.403 119.227C157.138 125.304 154.505 126.586 151.308 129.594C151.077 144.044 133.049 146.358 134.87 160.128C135.248 164.602 133.549 168.057 130.567 168.883C119.166 165.868 93.6563 135.644 91.9282 135.083C90.1998 134.522 83.5262 133.538 77.4233 131.977C74.9534 123.606 64.4487 123.427 58.7443 123.967Z" fill="#9567F9"/>
<path d="M58.7421 118.266C66.5706 122.103 76.3169 111.541 83.0066 116.076C92.9959 122.849 98.5614 109.931 102.988 113.039" stroke="#FDD333"/>
<path d="M104.838 108.82C102.881 117.027 95.4179 129.748 91.9309 135.082C91.6792 135 91.3228 134.91 90.8789 134.81C94.6621 128.706 102.577 114.833 103.975 108.164L104.838 108.82Z" fill="#FDD333"/>
<path d="M103.258 112.329C104.692 110.877 108.136 108.362 110.436 109.918C112.737 111.475 115.281 110.388 116.265 109.651M103.258 112.329C102.064 113.356 99.3481 115.075 98.0349 113.742C96.3933 112.075 101.704 111.547 103.258 112.329ZM103.258 112.329C102.677 113.83 101.977 116.964 103.818 117.495C106.119 118.159 104.457 114.04 103.258 112.329ZM103.258 112.329C104.84 111.919 108.974 111.662 112.847 113.919C116.72 116.175 118.311 116.112 118.622 115.798L103.258 112.329Z" stroke="#7644E1"/>
<path d="M151.37 129.073L110.851 114.057C123.822 116.979 150.431 122.915 155.717 123.87C155.922 123.908 156.044 124.112 155.969 124.306C155.202 126.302 152.912 128.211 151.68 129.038C151.589 129.1 151.473 129.111 151.37 129.073Z" fill="#7644E1"/>
<path d="M124.072 148.246C119.571 147.201 104.413 128.907 104.413 128.907C104.413 128.907 118.684 142.946 124.494 145.793C129.833 148.409 139.663 147.125 139.663 147.125C139.663 147.125 130.018 149.626 124.072 148.246Z" fill="#7644E1"/>
<path d="M91.928 135.084C91.9567 135.093 91.992 135.111 92.0337 135.136C101.723 139.977 128.626 165.869 134.869 160.129C135.248 164.602 133.549 168.058 130.567 168.883C119.356 165.919 94.5012 136.643 92.0337 135.136C91.9983 135.119 91.963 135.101 91.928 135.084Z" fill="#7644E1"/>
<path d="M187.399 77.6286C188.908 54.7756 171.884 42.8412 164.216 43.6411L164.112 42.9499C177.037 33.5818 196.538 61.9358 190.86 77.108C189.845 78.2033 188.84 79.6743 187.399 77.6286Z" fill="#292561"/>
<path d="M191.837 76.8433C190.996 75.4951 189.219 75.0831 187.869 75.9232C186.518 76.7633 186.106 78.5373 186.947 79.8856L203.469 106.362C204.31 107.71 206.087 108.122 207.437 107.282C208.787 106.442 209.2 104.668 208.359 103.32L191.837 76.8433Z" fill="#7C3A3A"/>
<path d="M189.302 77.3437C170.032 72.8176 162.826 49.6847 166.331 42.3756L165.786 41.9365C154.705 46.3105 170.496 81.7638 187.052 79.7184C188.512 79.3971 190.343 79.6191 189.302 77.3437Z" fill="#7C3A3A"/>
<path d="M305.285 193.568C320.105 194.151 353.598 196.05 378.805 198.288C366.377 210.174 338.894 232.722 295.482 243.559C299.61 222.587 303.405 202.227 305.285 193.568Z" fill="#FFB700"/>
<path d="M334.037 57.0204C320.246 54.8355 322.819 31.1093 323.688 23.9785C312.653 30.507 322.364 43.2912 317.361 49.9274C299.247 73.957 301.943 79.7276 313.573 87.6564C333.441 101.203 333.434 60.8186 334.037 57.0204Z" fill="#7C3A3A"/>
<path d="M360.073 71.9132C355.683 71.1315 347.501 58.0792 344.231 51.5566C341.536 52.6711 335.297 55.0095 331.912 55.4468C331.817 63.7085 326.776 72.8714 322.445 73.7943C314.659 85.1557 362.303 83.9511 360.073 71.9132Z" fill="#FECFC3"/>
<path d="M322.445 73.7953C314.659 85.1567 362.303 83.9524 360.073 71.9145C359.797 71.8649 359.503 71.7667 359.198 71.624C342.218 82.0517 321.913 78.3811 323.838 73.236C323.369 73.5076 322.904 73.6977 322.445 73.7953Z" fill="#E9B0A1"/>
<path d="M344.237 51.5586C341.538 52.6731 335.299 55.0118 331.917 55.4491C331.885 58.1003 331.588 58.6985 331.073 61.3941C339.738 59.2061 344.597 53.8047 344.237 51.5586Z" fill="#E9B0A1"/>
<path d="M346.249 53.8433C323.672 67.0628 320.822 41.538 323.693 23.9795L350.363 27.9612C351.494 35.6863 353.006 49.8874 346.249 53.8433Z" fill="#FECFC3"/>
<path d="M338.964 29.2109C333.776 29.4189 325.8 27.5843 323.696 23.9657C327.281 16.0201 332.991 10.5613 350.535 17.2104C368.075 23.8595 358.419 60.2524 382.211 61.7004C406.004 63.148 408.213 88.2642 395.953 97.1569C367.591 117.722 364.665 74.0113 359.791 71.7827C343.97 64.5467 345.154 55.5705 345.77 48.5837C345.857 47.5933 350.535 47.4654 350.16 40.2727C350.006 37.3272 345.038 40.9212 345.262 39.4967C345.49 38.0721 344.149 29.0032 338.964 29.2109Z" fill="#7C3A3A"/>
<path d="M382.75 56.9066C395.672 57.0887 403.893 67.7684 406.389 73.0856C391.986 52.154 382.537 63.091 373.725 55.4771C363.558 46.6921 359.774 26.8459 353.038 30.4414C351.865 27.9254 356.787 25.9985 355.502 24.6152C364.528 26.0447 366.597 56.679 382.75 56.9066Z" fill="#7C3A3A"/>
<path d="M353.341 7.23365C358.666 8.07719 362.276 13.1986 361.407 18.6727C361.096 20.6157 360.266 22.3419 359.083 23.7228C355.603 14.9993 346.742 13.187 342.747 13.3716C344.445 9.15915 348.783 6.51141 353.341 7.23365Z" fill="#7C3A3A"/>
<path d="M251.544 138.16C253.785 135.084 268.057 118.234 271.324 111.941L293.906 129.945C288.654 140.083 265.958 167.915 256.62 171.895C242.266 178.012 211.495 114.388 208.345 114.388C202.463 115.227 198.192 111.359 196.791 109.319C195.099 108.795 191.925 107.257 192.765 105.299C191.365 105.299 187.864 102.328 190.314 99.3563C188.563 99.5311 185.938 97.6083 187.864 94.4621C185.413 94.6369 181.037 90.0923 182.262 89.0436C183.487 87.9948 187.163 84.6738 190.314 85.8973C192.835 86.8762 197.55 89.1019 199.592 90.0923C199.942 88.8107 200.432 85.9323 199.592 84.6738C195.216 79.9544 193.816 71.2148 196.791 71.2148C199.767 71.2148 200.467 76.2838 204.844 80.8284C219.898 91.3159 212.196 97.2588 215.697 101.104C223.224 117.709 248.743 142.005 251.544 138.16Z" fill="#FECFC3"/>
<path d="M271.325 111.94L293.907 129.944C291.407 134.77 284.954 143.605 277.872 151.968C277.241 146.724 280.603 138.159 278.502 137.285C276.822 136.586 268.249 126.972 264.173 122.253C267.298 118.184 270.093 114.312 271.325 111.94Z" fill="#E9B0A1"/>
<path d="M262.572 112.815C277.276 92.5392 292.214 83.9164 296.882 81.7021C328.04 94.6367 312.286 128.546 301.783 141.131C284.628 139.383 265.723 124.701 262.572 112.815Z" fill="#0071DC"/>
<path d="M301.783 141.13C284.628 139.383 265.723 124.7 262.572 112.814C263.178 111.979 263.784 111.164 264.39 110.367C267.675 118.757 280.186 136.096 303.943 138.334C303.212 139.353 302.487 140.289 301.783 141.13Z" fill="#0666C1"/>
<path d="M312.772 95.6856C320.026 111.172 309.491 131.895 301.782 141.131C295.672 140.509 289.34 138.245 283.577 135.052C298.981 86.8401 309.46 88.7195 312.772 95.6856Z" fill="#286EDC"/>
<path d="M206.946 103.726C208.638 104.891 209.992 107.151 201.87 106.872C200.89 106.872 200.411 107.804 200.294 108.27M199.594 90.0918C200.703 90.791 202.15 92.469 199.069 93.5876L199.594 90.0918ZM187.865 94.4616C188.682 92.8885 192.067 90.5113 199.069 93.5876L187.865 94.4616ZM190.316 99.3557C196.442 96.2095 203.62 98.4818 206.071 99.3557H190.316ZM192.767 105.299C196.793 100.754 201.17 101.628 206.946 103.726L192.767 105.299ZM199.069 93.5876C207.821 97.433 208.522 98.8314 206.071 99.3557L199.069 93.5876ZM206.071 99.3557C207.063 100.113 208.627 102.048 206.946 103.726L206.071 99.3557Z" stroke="#E9B0A1"/>
<path d="M296.881 81.7024C305.283 76.1091 317.712 73.662 323.663 73.3124C320.513 82.7511 351.321 79.6049 359.723 71.9141C372.327 75.5847 376.003 78.0318 384.055 83.4503C384.055 85.5478 367.951 132.392 370.051 147.424C371.693 159.165 379.455 176.023 383.88 192.171C382.48 194.093 381.429 195.492 378.454 198.638C358.208 194.023 310.36 209.999 302.133 198.813C304.349 191.471 308.364 171.755 301.082 151.619C291.98 126.449 293.555 111.417 296.881 81.7024Z" fill="#0071DC"/>
<path d="M384.058 83.4512C384.058 85.5487 367.953 132.393 370.054 147.425C371.419 157.182 376.912 170.475 381.271 183.956C369.795 184.935 325.591 174.459 304.925 169.099C304.411 163.517 303.245 157.587 301.085 151.62C298.889 145.554 297.318 140.076 296.239 134.84C318.526 130.82 312.113 158.611 316.489 158.611C370.404 156.164 366.203 151.62 366.203 147.425C366.203 143.23 355 147.425 355 142.88C351.218 105.685 372.795 87.7629 384.058 83.4512Z" fill="#286EDC"/>
<path d="M280.609 129.663C280.338 128.561 281.173 127.498 282.309 127.498H302.798C303.603 127.498 304.307 128.048 304.499 128.829L314.904 171.129C315.174 172.23 314.34 173.293 313.203 173.293H292.714C291.908 173.293 291.206 172.744 291.014 171.963L280.609 129.663Z" fill="#3E388F"/>
<path d="M398.41 139.383C400.51 151.619 402.121 169.21 398.41 177.663C392.808 190.423 329.791 174.516 318.238 171.544C314.387 170.495 302.308 168.398 298.457 163.329C296.731 161.057 296.532 159.134 293.556 158.085C290.58 157.036 285.897 154.981 286.554 153.016C286.904 151.968 291.28 153.016 291.28 153.016C291.28 153.016 290.23 151.793 288.129 151.268C286.601 150.887 284.628 149.87 284.103 147.423C283.742 145.74 288.304 148.472 289.53 148.122C290.755 147.773 283.394 146.756 282.003 143.053C281.42 141.501 283.753 140.257 283.753 142.115C284.947 142.294 286.34 142.424 287.079 142.487C285.953 142.342 283.278 141.7 281.652 138.858C280.777 137.46 282.527 136.236 283.053 137.91C284.223 138.198 285.548 138.732 286.554 138.509C288.129 138.16 296.006 139.209 303.183 146.2C304.979 147.948 307.21 145.501 306.684 136.937C312.986 140.608 310.536 147.073 312.111 153.366C312.853 156.337 313.847 159.34 315.262 160.008C318.588 161.581 365.326 156.512 367.251 156.337C368.792 156.197 367.892 146.957 367.251 140.606L398.41 139.383Z" fill="#FECFC3"/>
<path d="M287.254 142.529C288.654 143.345 291.945 145.011 293.906 145.151" stroke="#E9B0A1"/>
<path d="M289.354 147.948C290.055 148.356 291.805 149.172 293.206 149.172" stroke="#E9B0A1"/>
<path d="M398.411 139.384L367.252 140.607C367.466 142.708 367.704 145.125 367.875 147.424C373.008 148.88 386.539 150.92 399.594 147.424C399.247 144.603 398.838 141.882 398.411 139.384Z" fill="#E9B0A1"/>
<path d="M408.387 139.557C404.886 99.1804 389.832 86.7702 383.705 83.2744C357.273 88.3434 355.347 131.517 357.973 140.781C364.625 143.577 389.307 148.996 408.387 139.557Z" fill="#0071DC"/>
<path d="M357.974 140.782C364.626 143.579 389.308 148.997 408.388 139.558C408.332 138.911 408.272 138.27 408.209 137.636C388.324 144.907 366.054 140.666 357.403 137.636C357.55 138.91 357.746 139.975 357.974 140.782Z" fill="#0666C1"/>
</svg>
