<svg width="77" height="24" viewBox="0 0 77 24" fill="none" xmlns="http://www.w3.org/2000/svg">
    <circle cx="6" cy="12" r="5.5" fill="#B9BABE" stroke="#B9BABE" />
    <circle cx="31" cy="12" r="5.5" fill="#EDEDF6" stroke="#EDEDF6" />
    <path
        d="M50 10.5C49.1716 10.5 48.5 11.1716 48.5 12C48.5 12.8284 49.1716 13.5 50 13.5L50 10.5ZM76.0607 13.0607C76.6464 12.4749 76.6464 11.5251 76.0607 10.9393L66.5147 1.3934C65.9289 0.80761 64.9792 0.80761 64.3934 1.3934C63.8076 1.97918 63.8076 2.92893 64.3934 3.51472L72.8787 12L64.3934 20.4853C63.8076 21.0711 63.8076 22.0208 64.3934 22.6066C64.9792 23.1924 65.9289 23.1924 66.5147 22.6066L76.0607 13.0607ZM50 13.5L75 13.5L75 10.5L50 10.5L50 13.5Z"
        fill="#77DAE6" />
</svg>