<svg width="24" height="24" viewBox="0 0 24 24" fill="none" xmlns="http://www.w3.org/2000/svg">
    <path fill-rule="evenodd" clip-rule="evenodd"
        d="M16.5134 21.5003H8.16555C5.09919 21.5003 2.74679 20.3928 3.41498 15.9351L4.19301 9.89394C4.60491 7.66968 6.02367 6.81842 7.26852 6.81842H17.447C18.7102 6.81842 20.0466 7.73375 20.5225 9.89394L21.3006 15.9351C21.8681 19.8894 19.5797 21.5003 16.5134 21.5003Z"
        stroke="#1A162E" stroke-width="1.5" stroke-linecap="round" stroke-linejoin="round" />
    <path
        d="M16.6502 6.59873C16.6502 4.21265 14.716 2.27836 12.3299 2.27836V2.27836C11.1809 2.27349 10.0773 2.72652 9.26308 3.53727C8.44889 4.34803 7.9912 5.44971 7.99121 6.59873H7.99121"
        stroke="#1A162E" stroke-width="1.5" stroke-linecap="round" stroke-linejoin="round" />
    <path d="M15.296 11.1021H15.2502" stroke="#1A162E" stroke-width="1.5" stroke-linecap="round"
        stroke-linejoin="round" />
    <path d="M9.46492 11.1022H9.41916" stroke="#1A162E" stroke-width="1.5" stroke-linecap="round"
        stroke-linejoin="round" />
</svg>
    