<svg width="24" height="24" viewBox="0 0 24 24" fill="none" xmlns="http://www.w3.org/2000/svg">
    <path d="M19 12V21H5V12" stroke="#1A162E" stroke-width="1.5" stroke-linecap="round"
        stroke-linejoin="round" />
    <path d="M21 8H3V12H21V8Z" stroke="#1A162E" stroke-width="1.5" stroke-linecap="round"
        stroke-linejoin="round" />
    <path d="M12 21V8" stroke="#1A162E" stroke-width="1.5" stroke-linecap="round"
        stroke-linejoin="round" />
    <path
        d="M12 8H8.14286C7.57454 8 7.02949 7.73661 6.62763 7.26777C6.22576 6.79893 6 6.16304 6 5.5C6 4.83696 6.22576 4.20107 6.62763 3.73223C7.02949 3.26339 7.57454 3 8.14286 3C11.1429 3 12 8 12 8Z"
        stroke="#1A162E" stroke-width="1.5" stroke-linecap="round" stroke-linejoin="round" />
    <path
        d="M12 8H15.8571C16.4255 8 16.9705 7.73661 17.3724 7.26777C17.7742 6.79893 18 6.16304 18 5.5C18 4.83696 17.7742 4.20107 17.3724 3.73223C16.9705 3.26339 16.4255 3 15.8571 3C12.8571 3 12 8 12 8Z"
        stroke="#1A162E" stroke-width="1.5" stroke-linecap="round" stroke-linejoin="round" />
</svg>
    