<svg width="56" height="56" viewBox="0 0 56 56" fill="none" xmlns="http://www.w3.org/2000/svg">
    <path d="M46.6666 28V51.3333H9.33325V28" stroke="#7644E1" stroke-width="4"
        stroke-linecap="round" stroke-linejoin="round" />
    <path d="M51.3334 16.3334H4.66675V28H51.3334V16.3334Z" stroke="#7644E1" stroke-width="4"
        stroke-linecap="round" stroke-linejoin="round" />
    <path d="M28 51.3334V16.3334" stroke="#7644E1" stroke-width="4" stroke-linecap="round"
        stroke-linejoin="round" />
    <path
        d="M28.0001 16.3333H17.5001C15.953 16.3333 14.4693 15.7187 13.3753 14.6247C12.2813 13.5308 11.6667 12.0471 11.6667 10.5C11.6667 8.95286 12.2813 7.46913 13.3753 6.37517C14.4693 5.28121 15.953 4.66663 17.5001 4.66663C25.6667 4.66663 28.0001 16.3333 28.0001 16.3333Z"
        stroke="#7644E1" stroke-width="4" stroke-linecap="round" stroke-linejoin="round" />
    <path
        d="M28 16.3333H38.5C40.0471 16.3333 41.5308 15.7187 42.6248 14.6247C43.7188 13.5308 44.3333 12.0471 44.3333 10.5C44.3333 8.95286 43.7188 7.46913 42.6248 6.37517C41.5308 5.28121 40.0471 4.66663 38.5 4.66663C30.3333 4.66663 28 16.3333 28 16.3333Z"
        stroke="#7644E1" stroke-width="4" stroke-linecap="round" stroke-linejoin="round" />
</svg>
    