<svg width="24" height="24" viewBox="0 0 24 24" fill="none" xmlns="http://www.w3.org/2000/svg">
    <g clip-path="url(#clip0_32764_5629)">
        <path
            d="M12.2045 11.0183H20.9315C20.9765 11.4041 21 11.8 21 12.205C21 14.9452 19.9977 17.2525 18.2611 18.82C16.7424 20.1942 14.6632 21 12.1841 21C10.978 21.0005 9.78353 20.7681 8.66909 20.316C7.55465 19.864 6.54204 19.2011 5.68912 18.3653C4.83621 17.5296 4.15971 16.5373 3.6983 15.4452C3.23688 14.353 2.9996 13.1825 3 12.0005C2.99946 10.8184 3.23665 9.64776 3.698 8.55554C4.15936 7.46331 4.83583 6.47089 5.68876 5.63501C6.54169 4.79913 7.55435 4.13618 8.66886 3.68405C9.78336 3.23192 10.9779 2.99947 12.1841 3C14.6591 3 16.7383 3.89203 18.3286 5.34434L16.8334 6.80868C15.6491 5.68712 14.0485 5.00457 12.2045 5.00457C11.2644 5.00457 10.3335 5.18604 9.46488 5.53863C8.5963 5.89121 7.80709 6.40801 7.1423 7.0595C6.47752 7.71099 5.95019 8.48443 5.59041 9.33565C5.23063 10.1869 5.04546 11.0992 5.04546 12.0205C5.04546 12.9419 5.23063 13.8542 5.59041 14.7054C5.95019 15.5567 6.47752 16.3301 7.1423 16.9816C7.80709 17.6331 8.5963 18.1499 9.46488 18.5025C10.3335 18.8551 11.2644 19.0365 12.2045 19.0365C15.8107 19.0365 18.4882 16.4226 18.931 13.0228H12.2045V11.0183Z"
            fill="#1A162E" />
    </g>
    <defs>
        <clipPath id="clip0_32764_5629">
            <rect width="24" height="24" fill="white" />
        </clipPath>
    </defs>
</svg>
    