<svg xmlns="http://www.w3.org/2000/svg" width="32" height="32" viewBox="0 0 32 32" fill="none">
    <path fill-rule="evenodd" clip-rule="evenodd"
        d="M4.79999 0H27.2L32 8V30.4C32 31.2837 31.2837 32 30.4 32H1.6C0.716344 32 0 31.2837 0 30.4V8L4.79999 0ZM2.79886 8H29.2011L25.8411 2.4H6.15888L2.79886 8ZM8 12.4C8.66272 12.4 9.2 12.9373 9.2 13.6C9.2 17.3555 12.2445 20.4 16 20.4C19.7555 20.4 22.8 17.3555 22.8 13.6C22.8 12.9373 23.3373 12.4 24 12.4C24.6627 12.4 25.2 12.9373 25.2 13.6C25.2 18.681 21.081 22.8 16 22.8C10.919 22.8 6.8 18.681 6.8 13.6C6.8 12.9373 7.33728 12.4 8 12.4Z"
        fill="#77DAE6" />
</svg>