<svg width="25" height="24" viewBox="0 0 25 24" fill="none" xmlns="http://www.w3.org/2000/svg">
    <path fill-rule="evenodd" clip-rule="evenodd" d="M13.6043 4.17701L15.4317 7.82776C15.6108 8.18616 15.9565 8.43467 16.3573 8.49218L20.4453 9.08062C21.4554 9.22644 21.8573 10.4505 21.1263 11.1519L18.1702 13.9924C17.8797 14.2718 17.7474 14.6733 17.8162 15.0676L18.5138 19.0778C18.6856 20.0698 17.6298 20.8267 16.727 20.3574L13.0732 18.4627C12.715 18.2768 12.286 18.2768 11.9268 18.4627L8.273 20.3574C7.37023 20.8267 6.31439 20.0698 6.48724 19.0778L7.18385 15.0676C7.25257 14.6733 7.12033 14.2718 6.82982 13.9924L3.87368 11.1519C3.14272 10.4505 3.54464 9.22644 4.55466 9.08062L8.64265 8.49218C9.04354 8.43467 9.39028 8.18616 9.56937 7.82776L11.3957 4.17701C11.8477 3.27433 13.1523 3.27433 13.6043 4.17701Z" stroke="#FFB700" stroke-width="1.5" stroke-linecap="round" stroke-linejoin="round"/>
    <path fill-rule="evenodd" clip-rule="evenodd" d="M13.0732 4.17701V7.82776V8.49218V9.08062V11.1519V13.9924V15.0676V19.0778V18.4627C12.715 18.2768 12.286 18.2768 11.9268 18.4627L8.273 20.3574C7.37023 20.8267 6.31439 20.0698 6.48724 19.0778L7.18385 15.0676C7.25257 14.6733 7.12033 14.2718 6.82982 13.9924L3.87368 11.1519C3.14272 10.4505 3.54464 9.22644 4.55466 9.08062L8.64265 8.49218C9.04354 8.43467 9.39028 8.18616 9.56937 7.82776L11.3957 4.17701C11.8477 3.27433 12.6213 3.27433 13.0732 4.17701Z" fill="#FFB700"/>
    </svg>
    